<?xml version="1.0" encoding="UTF-8"?>
<svg id="Layer_1" xmlns="http://www.w3.org/2000/svg" width="1032" height="344" version="1.1" viewBox="0 0 1032 344">
  <!-- Generator: Adobe Illustrator 29.8.2, SVG Export Plug-In . SVG Version: 2.1.1 Build 3)  -->
  <defs>
    <style>
      .st0 {
        fill: #fdbd3e;
      }

      .st1 {
        fill: #fff;
      }
    </style>
  </defs>
  <path class="st0" d="M998.26,177.88l1.44,1.47-.07.06.07.06-11.24,6.94-.43-.15h-164.61v-2.87h162.64l-2.4-3.73h-71.11v-2.87h69.28l-2.38-3.74h-100.05v-2.87h98.18l-2.4-3.73h-62.63v-2.87h60.8l-2.41-3.74h-24.42l-.89,1.44-1.72-1.44h-120.5v-2.87h117.04l-4.54-3.73h-23.36v-2.87h19.94l-4.53-3.76h-48.56v-2.84h45.11l-4.53-3.76-3.22-2.74-1.5,2.74-.8,1.39-2.65-1.46.73-1.19.97-1.61,2.26-3.73h-92.36v-2.86h94.1l.97-1.6h4.08l1.92,1.6h28.15l2.32-3.73h-42.41v-2.87h44.19l2.31-3.73h-79.66v-2.87h81.46l2.31-3.73h-50.62v-2.88h52.41l2.33-3.73h-143.87v-2.87h145.65l2.33-3.73h-58.84v-2.87h60.63l.46-.75-1.49-3.01h-92.75v-2.87h91.34l-1.82-3.73h-2.5l-2.33,1.98-1.66-1.97h.01s-49.89-.01-49.89-.01v-2.87h53.24l3.27-2.78,1.37,2.78h10.93l2.33-3.73h-160.27v-2.88h162.05l.1-.13,7.96,4.34-1.43,2.39h.08l-1.73,2.87h-.08l-2.26,3.73h.07l-1.72,2.87h-.08l-2.25,3.75h.07l-1.75,2.87h-.07l-2.23,3.71v.03h.05l-.03.04,5.68,11.53,5.95-3.89,1.21,1.81-8.37,5.52-6.06-12.32-.11.18h-.08l-2.26,3.73h.09l-1.74,2.88h-.07l-2.26,3.73h.06l-1.71,2.87h-.1l-2.26,3.73h.09l-1.74,2.87h-.05l-2.28,3.73h.09l-.51.84,1.37,2.02h-.08l2.48,3.73h.1l1.93,2.87h-.11l2.53,3.76h.08l1.92,2.84h-.1l2.53,3.76h.08l1.92,2.87h-.08l2.52,3.73h.1l1.9,2.87h-.08l2.52,3.74h.1l1.92,2.87h-.09l2.5,3.73h.11l1.92,2.87h-.09l2.5,3.74h.09l1.68,2.53,2.33-1.43ZM977.24,90.92l2.33-3.73h-7.75l1.83,3.73h3.59ZM975.25,94.17l.23-.38h-.4l.18.38ZM969.1,156.98l-2.4-3.73h-16.21l-2.26,3.73h20.86ZM964.87,150.38l-2.37-3.76h-8.01l-2.24,3.76h12.63ZM960.63,143.78l-2.28-3.56-2.13,3.56h4.41ZM948.53,137.15l2.32-3.73h-22.89l4.5,3.73h16.07ZM944.42,143.78l2.31-3.76h-10.83l4.5,3.76h4.01Z"/>
  <g>
    <path class="st1" d="M84.78,106.85c0,7.34-1.92,13.58-5.77,18.7-3.85,5.12-9.3,8.7-16.35,10.72-3.95,1.13-11.22,1.7-21.83,1.7v46.18h-20.72v-108.85h21.98c9.52,0,16.62.64,21.31,1.92,7.5,1.97,13.12,5.96,16.87,11.97,3.01,4.93,4.51,10.82,4.51,17.67ZM64.66,106.85c0-4.21-1.62-7.28-4.87-9.21-2.41-1.44-6.79-2.15-13.13-2.15h-5.83v22.35h6.57c8.21,0,13.4-1.61,15.57-4.83,1.13-1.68,1.7-3.74,1.7-6.16Z"/>
    <path class="st1" d="M201.11,184.14h-21.46l-8.52-22.42h-44.45l-8.89,22.42h-21.46l41.93-108.85h21l41.85,108.85ZM163.35,141.59l-14.45-37.52-14.52,37.52h28.97Z"/>
    <path class="st1" d="M288.36,184.14h-22.57l-24.57-46.18h-1.92v46.18h-20.72v-108.85h21.98c9.67,0,16.77.62,21.31,1.85,7.35,1.93,12.92,5.95,16.72,12.08,3.11,4.99,4.66,10.89,4.66,17.71,0,14.32-6.91,23.96-20.72,28.9l25.83,48.32ZM263.12,106.63c0-5-2.26-8.34-6.79-10.02-2.06-.74-5.85-1.11-11.36-1.11h-5.68v22.35h6.49c5.46,0,9.39-.54,11.8-1.63,3.69-1.68,5.53-4.87,5.53-9.58Z"/>
    <path class="st1" d="M384.33,184.14h-24.6l-33.64-48.32v48.32h-20.87v-108.85h20.87v37.44l29.56-37.44h24.97l-38.08,48.54,41.79,60.31Z"/>
    <path class="st1" d="M509.76,129.68c0,16.03-5.51,29.58-16.54,40.63-11.03,11.05-24.56,16.58-40.59,16.58s-29.63-5.45-40.77-16.35c-11.15-10.9-16.72-24.35-16.72-40.33,0-10.36,2.49-20,7.47-28.93,4.98-8.93,11.91-15.98,20.79-21.16,8.73-5.03,18.18-7.55,28.34-7.55,16.38,0,30.12,5.4,41.22,16.21,11.2,10.95,16.8,24.59,16.8,40.92ZM498.59,129.68c0-17.93-7.67-31.3-23.01-40.12-7.32-4.19-15.09-6.28-23.3-6.28s-15.83,2.09-23,6.28c-7.17,4.19-12.78,9.83-16.83,16.92-4.05,7.09-6.07,15-6.07,23.72,0,12.86,4.41,23.74,13.25,32.66,8.83,8.91,19.71,13.37,32.65,13.37,8.42,0,16.23-2.02,23.4-6.06,7.18-4.04,12.79-9.63,16.83-16.77,4.04-7.14,6.07-15.05,6.07-23.72Z"/>
    <path class="st1" d="M617.14,184.14h-2.44l-71.85-82.29v82.29h-11.17v-108.85h2.37l72.3,83.32v-83.32h10.8v108.85Z"/>
    <path class="st1" d="M653.03,184.14h-10.8v-108.85h10.8v108.85Z"/>
    <path class="st1" d="M779.34,165.2c-11.35,14.46-27.18,21.68-47.51,21.68-19.09,0-34.11-6.34-45.07-19.02-9.23-10.66-13.84-23.58-13.84-38.78,0-16.43,5.72-30.02,17.17-40.77,11.2-10.51,25.06-15.76,41.59-15.76,20.72,0,36.6,7.65,47.66,22.94l-8.58,6.59c-9.63-12.48-22.61-18.72-38.96-18.72-8.49,0-16.42,2.02-23.77,6.06-7.55,4.09-13.39,9.69-17.52,16.81-4.12,7.12-6.18,15.06-6.18,23.83,0,13.6,4.64,24.78,13.92,33.54,9.13,8.62,20.54,12.93,34.22,12.93,15.26,0,28.02-5.94,38.29-17.83l8.58,6.51Z"/>
  </g>
  <g>
    <path class="st1" d="M40.8,253.71c0,3.12-1.07,5.72-3.22,7.78-2.15,2.06-4.79,3.09-7.93,3.09-4.54,0-8.17-1.74-10.88-5.22l2.98-3.39c2.41,2.71,4.97,4.07,7.68,4.07,1.78,0,3.37-.58,4.75-1.74,1.39-1.16,2.08-2.62,2.08-4.38s-.82-3.35-2.47-4.7c-.81-.68-2.41-1.62-4.81-2.84-2.73-1.4-4.73-2.79-5.99-4.17-1.71-1.85-2.57-4.07-2.57-6.65,0-2.87.97-5.22,2.9-7.04,1.93-1.82,4.33-2.73,7.21-2.73,3.39,0,6.8,1.66,10.24,4.98l-3.05,3.15c-2.53-2.44-5-3.66-7.41-3.66-1.47,0-2.76.48-3.89,1.45-1.13.97-1.69,2.17-1.69,3.61,0,2.43,2.35,4.86,7.04,7.28,2.89,1.5,4.98,2.92,6.29,4.28,1.83,1.9,2.74,4.18,2.74,6.83Z"/>
    <path class="st1" d="M104.41,263.63h-4.88v-20.12c0-3.09-.14-5.25-.41-6.47-.5-2.35-1.61-4.1-3.32-5.25-1.38-.9-3.02-1.35-4.92-1.35-2.35,0-4.48.68-6.38,2.05s-3.28,3.17-4.15,5.42c-.87,2.25-1.31,6.01-1.31,11.3v14.43h-4.75v-18.87c0-3.46-.11-5.8-.34-7.05-.47-2.66-1.61-4.62-3.39-5.86-1.38-.95-3.02-1.42-4.92-1.42-2.28,0-4.39.69-6.31,2.07-1.83,1.33-3.19,3.08-4.07,5.25-.93,2.24-1.39,5.66-1.39,10.26v15.62h-4.75v-36.89h4.75v6.38c3.44-4.88,7.66-7.32,12.66-7.32,3.78,0,6.79,1.28,9.03,3.83,1.02,1.18,1.9,2.85,2.65,5.02,3.24-5.9,7.78-8.85,13.62-8.85,5.41,0,9.12,2.44,11.14,7.32.95,2.31,1.43,5.76,1.43,10.38v20.14Z"/>
    <path class="st1" d="M151.07,263.63h-4.71v-6.34c-4,4.86-8.93,7.29-14.8,7.29-5.33,0-9.82-1.92-13.48-5.76-3.61-3.77-5.42-8.35-5.42-13.73s1.85-9.86,5.54-13.63c3.69-3.77,8.19-5.66,13.5-5.66,6.07,0,10.96,2.58,14.67,7.73v-6.78h4.71v36.89ZM146.66,245.38c0-4.22-1.38-7.77-4.14-10.66-2.76-2.89-6.24-4.33-10.44-4.33-5.64,0-9.84,2.47-12.62,7.41-1.33,2.35-2,4.83-2,7.44s.67,5.1,2,7.46c1.33,2.36,3.12,4.2,5.36,5.52,2.24,1.32,4.65,1.98,7.22,1.98s5.05-.65,7.37-1.96,4.11-3.08,5.36-5.31c1.25-2.23,1.88-4.75,1.88-7.54Z"/>
    <path class="st1" d="M178.6,227.04l-2.48,4.04c-.99-.43-1.83-.64-2.5-.64-3.79,0-6.42,2.67-7.91,7.99-.59,2.1-.88,6.35-.88,12.74v12.47h-4.88v-36.89h4.88v5.42c2.86-4.25,6.05-6.37,9.57-6.37,1.31,0,2.71.42,4.19,1.25Z"/>
    <path class="st1" d="M199.12,230.84h-7.53v32.79h-4.81v-32.79h-6.48v-4.1h6.48v-13.7h4.81v13.7h7.53v4.1Z"/>
    <path class="st1" d="M267.82,245.08c0,5.38-1.81,9.96-5.42,13.73-3.66,3.84-8.15,5.76-13.48,5.76-5.85,0-10.77-2.43-14.77-7.29v19.84h-4.75v-50.39h4.75v6.78c3.75-5.15,8.63-7.73,14.63-7.73,5.31,0,9.81,1.89,13.5,5.66,3.69,3.78,5.54,8.32,5.54,13.63ZM263,245.25c0-2.62-.65-5.1-1.96-7.44s-3.08-4.17-5.33-5.46c-2.24-1.3-4.69-1.95-7.32-1.95-4.2,0-7.67,1.44-10.44,4.33-2.76,2.89-4.14,6.44-4.14,10.66,0,5.86,2.42,10.15,7.27,12.86,2.32,1.31,4.78,1.96,7.38,1.96s5.05-.68,7.31-2.03c2.19-1.33,3.94-3.17,5.26-5.51,1.32-2.35,1.98-4.82,1.98-7.41Z"/>
    <path class="st1" d="M313.46,263.63h-4.71v-6.34c-4,4.86-8.93,7.29-14.8,7.29-5.33,0-9.82-1.92-13.48-5.76-3.61-3.77-5.42-8.35-5.42-13.73s1.85-9.86,5.54-13.63c3.69-3.77,8.19-5.66,13.5-5.66,6.07,0,10.96,2.58,14.67,7.73v-6.78h4.71v36.89ZM309.05,245.38c0-4.22-1.38-7.77-4.14-10.66-2.76-2.89-6.24-4.33-10.44-4.33-5.64,0-9.84,2.47-12.62,7.41-1.33,2.35-2,4.83-2,7.44s.67,5.1,2,7.46c1.33,2.36,3.12,4.2,5.36,5.52,2.24,1.32,4.65,1.98,7.22,1.98s5.05-.65,7.37-1.96,4.11-3.08,5.36-5.31c1.25-2.23,1.88-4.75,1.88-7.54Z"/>
    <path class="st1" d="M340.99,227.04l-2.48,4.04c-.99-.43-1.83-.64-2.5-.64-3.79,0-6.42,2.67-7.91,7.99-.59,2.1-.88,6.35-.88,12.74v12.47h-4.88v-36.89h4.88v5.42c2.86-4.25,6.05-6.37,9.57-6.37,1.31,0,2.71.42,4.19,1.25Z"/>
    <path class="st1" d="M375,263.63h-6.71l-18.48-16.58v16.58h-4.81v-51.13h4.81v29.09l17.03-14.85h6.98l-20.22,17.6,21.4,19.29Z"/>
    <path class="st1" d="M385.44,215.46c0,1.08-.38,2-1.15,2.75s-1.69,1.13-2.77,1.13-1.97-.38-2.74-1.15c-.77-.76-1.15-1.68-1.15-2.73s.38-2,1.13-2.77c.75-.77,1.67-1.15,2.75-1.15s2,.38,2.77,1.15c.77.76,1.15,1.69,1.15,2.77ZM383.99,263.63h-4.81v-36.89h4.81v36.89Z"/>
    <path class="st1" d="M425.97,263.63h-4.75v-17.58c0-4.15-.18-6.99-.54-8.5-1.17-4.9-4.26-7.35-9.26-7.35-2.86,0-5.43.94-7.69,2.83-2.27,1.89-3.76,4.24-4.48,7.06-.45,1.79-.68,5.13-.68,10.03v13.52h-4.78v-36.89h4.78v6.61c3.77-5.04,8.38-7.56,13.82-7.56,2.69,0,5.11.68,7.26,2.05,2.16,1.37,3.75,3.26,4.77,5.66s1.54,6.12,1.54,11.14v18.99Z"/>
    <path class="st1" d="M472.69,256.13c0,5.13-.45,8.92-1.36,11.36-1.33,3.59-3.66,6.31-6.98,8.14-2.96,1.63-6.49,2.44-10.58,2.44-6.33,0-11.22-1.64-14.68-4.92-1.58-1.51-3.04-3.72-4.37-6.61h5.12c2.76,4.77,7.31,7.16,13.67,7.16s10.76-2.12,12.95-6.36c.95-1.83,1.42-4.77,1.42-8.83v-1.9c-3.7,4.68-8.62,7.02-14.74,7.02-3.37,0-6.54-.83-9.52-2.49-2.98-1.66-5.29-3.93-6.93-6.8-1.64-2.87-2.46-6.01-2.46-9.43s.85-6.62,2.54-9.56c1.69-2.94,4.04-5.27,7.03-6.98,2.99-1.72,6.15-2.58,9.47-2.58,5.6,0,10.47,2.45,14.6,7.36v-6.41h4.81v29.4ZM468.11,244.88c0-5.75-2.33-9.95-7-12.58-2.23-1.26-4.64-1.89-7.21-1.89s-5.18.64-7.48,1.93-4.1,3.08-5.41,5.38c-1.31,2.3-1.96,4.78-1.96,7.44,0,4.17,1.4,7.56,4.19,10.15,2.73,2.55,6.19,3.82,10.39,3.82s7.83-1.3,10.49-3.89c2.66-2.59,3.99-6.04,3.99-10.35Z"/>
    <path class="st1" d="M524.61,253.71c0,3.12-1.07,5.72-3.22,7.78-2.15,2.06-4.79,3.09-7.93,3.09-4.54,0-8.17-1.74-10.88-5.22l2.98-3.39c2.41,2.71,4.97,4.07,7.68,4.07,1.78,0,3.37-.58,4.75-1.74,1.39-1.16,2.08-2.62,2.08-4.38s-.82-3.35-2.47-4.7c-.81-.68-2.41-1.62-4.81-2.84-2.73-1.4-4.73-2.79-5.99-4.17-1.71-1.85-2.57-4.07-2.57-6.65,0-2.87.97-5.22,2.9-7.04,1.93-1.82,4.33-2.73,7.21-2.73,3.39,0,6.8,1.66,10.24,4.98l-3.04,3.15c-2.53-2.44-5-3.66-7.41-3.66-1.47,0-2.76.48-3.89,1.45-1.13.97-1.69,2.17-1.69,3.61,0,2.43,2.35,4.86,7.04,7.28,2.89,1.5,4.98,2.92,6.29,4.28,1.83,1.9,2.74,4.18,2.74,6.83Z"/>
    <path class="st1" d="M569.64,245.28c0,5.43-1.84,10-5.53,13.72-3.68,3.72-8.24,5.58-13.67,5.58s-9.99-1.85-13.68-5.56c-3.7-3.71-5.54-8.29-5.54-13.73,0-5.11,1.7-9.54,5.09-13.29,3.73-4.14,8.44-6.21,14.14-6.21s10.38,2.06,14.11,6.17c3.39,3.75,5.09,8.2,5.09,13.33ZM564.79,245.38c0-4.06-1.38-7.56-4.14-10.5-2.76-2.94-6.16-4.42-10.2-4.42s-7.44,1.47-10.2,4.42c-2.76,2.94-4.14,6.45-4.14,10.5,0,2.62.62,5.06,1.86,7.34,1.29,2.35,3.03,4.15,5.24,5.41,2.21,1.26,4.62,1.89,7.24,1.89,5.59,0,9.73-2.4,12.42-7.21,1.29-2.3,1.93-4.78,1.93-7.44Z"/>
    <path class="st1" d="M582.52,263.63h-4.78v-51.13h4.78v51.13Z"/>
    <path class="st1" d="M624.03,244.84c0,4.16-.4,7.46-1.19,9.9-1.08,3.32-3.06,5.87-5.93,7.63-2.4,1.47-5.39,2.2-8.99,2.2-7.08,0-11.87-2.77-14.38-8.31-1.2-2.6-1.8-6.52-1.8-11.77v-17.77h4.81v17.21c0,4.25.23,7.14.68,8.67.7,2.35,2.05,4.18,4.06,5.49,1.89,1.22,4.1,1.83,6.63,1.83s4.61-.58,6.46-1.73c1.96-1.24,3.31-2.98,4.06-5.22.47-1.42.71-4.44.71-9.04v-17.21h4.88v18.11Z"/>
    <path class="st1" d="M651.05,230.84h-7.53v32.79h-4.81v-32.79h-6.48v-4.1h6.48v-13.7h4.81v13.7h7.53v4.1Z"/>
    <path class="st1" d="M663.67,215.46c0,1.08-.38,2-1.15,2.75-.77.75-1.69,1.13-2.77,1.13s-1.97-.38-2.74-1.15-1.15-1.68-1.15-2.73.38-2,1.13-2.77c.75-.77,1.67-1.15,2.75-1.15s2,.38,2.77,1.15,1.15,1.69,1.15,2.77ZM662.21,263.63h-4.81v-36.89h4.81v36.89Z"/>
    <path class="st1" d="M708.66,245.28c0,5.43-1.84,10-5.53,13.72-3.68,3.72-8.24,5.58-13.67,5.58s-9.99-1.85-13.68-5.56c-3.7-3.71-5.54-8.29-5.54-13.73,0-5.11,1.7-9.54,5.09-13.29,3.73-4.14,8.44-6.21,14.14-6.21s10.38,2.06,14.11,6.17c3.39,3.75,5.09,8.2,5.09,13.33ZM703.81,245.38c0-4.06-1.38-7.56-4.14-10.5-2.76-2.94-6.16-4.42-10.2-4.42s-7.44,1.47-10.2,4.42c-2.76,2.94-4.14,6.45-4.14,10.5,0,2.62.62,5.06,1.86,7.34,1.29,2.35,3.03,4.15,5.24,5.41,2.21,1.26,4.62,1.89,7.24,1.89,5.59,0,9.73-2.4,12.42-7.21,1.29-2.3,1.93-4.78,1.93-7.44Z"/>
    <path class="st1" d="M749.66,263.63h-4.75v-17.58c0-4.15-.18-6.99-.54-8.5-1.17-4.9-4.26-7.35-9.26-7.35-2.86,0-5.43.94-7.69,2.83-2.27,1.89-3.76,4.24-4.48,7.06-.45,1.79-.68,5.13-.68,10.03v13.52h-4.78v-36.89h4.78v6.61c3.77-5.04,8.38-7.56,13.82-7.56,2.69,0,5.11.68,7.26,2.05,2.16,1.37,3.75,3.26,4.78,5.66s1.54,6.12,1.54,11.14v18.99Z"/>
    <path class="st1" d="M778.41,253.71c0,3.12-1.07,5.72-3.22,7.78s-4.79,3.09-7.93,3.09c-4.54,0-8.17-1.74-10.88-5.22l2.98-3.39c2.41,2.71,4.97,4.07,7.68,4.07,1.78,0,3.37-.58,4.75-1.74,1.39-1.16,2.08-2.62,2.08-4.38s-.82-3.35-2.47-4.7c-.81-.68-2.41-1.62-4.81-2.84-2.73-1.4-4.73-2.79-5.99-4.17-1.71-1.85-2.57-4.07-2.57-6.65,0-2.87.97-5.22,2.9-7.04s4.33-2.73,7.21-2.73c3.39,0,6.8,1.66,10.24,4.98l-3.05,3.15c-2.53-2.44-5-3.66-7.41-3.66-1.47,0-2.76.48-3.89,1.45-1.13.97-1.69,2.17-1.69,3.61,0,2.43,2.35,4.86,7.04,7.28,2.89,1.5,4.99,2.92,6.29,4.28,1.83,1.9,2.74,4.18,2.74,6.83Z"/>
  </g>
  <g>
    <path class="st1" d="M994.37,59.95h-3.77v-1.36h9.17v1.36h-3.79v11.02h-1.62v-11.02Z"/>
    <path class="st1" d="M1011.59,65.54c-.09-1.73-.2-3.8-.18-5.35h-.05c-.42,1.45-.94,2.99-1.56,4.7l-2.19,6.01h-1.21l-2-5.9c-.59-1.75-1.08-3.34-1.43-4.81h-.04c-.04,1.54-.13,3.62-.24,5.47l-.33,5.31h-1.53l.86-12.38h2.04l2.11,5.99c.51,1.52.94,2.88,1.25,4.17h.06c.31-1.25.75-2.61,1.3-4.17l2.21-5.99h2.04l.77,12.38h-1.56l-.31-5.44Z"/>
  </g>
</svg>