<svg xmlns="http://www.w3.org/2000/svg" width="581.002" height="227.119" viewBox="0 0 581.002 227.119">
  <g id="Group_74" data-name="Group 74" transform="translate(518 2721)">
    <path id="Path_386" data-name="Path 386" d="M-259.091-2621.912l-6.751,8.094,2.624,15.4h12.589l3.268-11.976-3.268-11.519Z" transform="translate(57)" fill="#fbaf3f"/>
    <path id="Path_377" data-name="Path 377" d="M628.054,134.859V70.581H512V59.7L624.369-85.008h15.474v145.7h37.211v9.89H639.843v64.278Zm0-208L524.9,60.691H628.054Z" transform="translate(-1030 -2632.696)" fill="#082337"/>
    <path id="Path_378" data-name="Path 378" d="M715,25.091C715-26,737.841-88.3,802.683-88.3,867.157-88.3,890-26,890,25.091c0,50.763-22.842,113.724-87.316,113.724C737.841,138.815,715,75.854,715,25.091Zm162.106,0c0-46.809-17.684-103.506-74.421-103.506s-74.789,56.7-74.789,103.506c0,46.478,18.052,103.835,74.789,103.835C859.052,128.926,877.1,71.569,877.1,25.091Z" transform="translate(-1030 -2632.696)" fill="#082337"/>
    <path id="Path_379" data-name="Path 379" d="M1044,134.859V70.581H927.948V59.7L1040.317-85.008h15.474v145.7H1093v9.89h-37.211v64.278Zm0-208L940.843,60.691H1044Z" transform="translate(-1030 -2632.696)" fill="#082337"/>
    <path id="Path_385" data-name="Path 385" d="M-259.091-2621.912l-6.751,8.094,2.624,15.4h12.589l3.268-11.976-3.268-11.519Z" fill="#fbaf3f"/>
    <g id="Group_73" data-name="Group 73" transform="translate(-954.859 -2513.164)">
      <path id="Path_380" data-name="Path 380" d="M764.076,77.352a46.029,46.029,0,0,1,32.37,13.127,3.657,3.657,0,0,1,1.159,4.3c-.988,2.439-3.882,2.883-6,.878a37.178,37.178,0,0,0-12.036-8.015c-15.536-6.03-29.664-3.634-42.292,7.3-.268.232-.51.494-.773.733-1.829,1.664-3.865,1.712-5.346.13-1.369-1.462-1.222-3.588.41-5.209a46.12,46.12,0,0,1,32.5-13.253Z" transform="translate(-36.699 -137.768)" fill="#082337"/>
      <path id="Path_381" data-name="Path 381" d="M896.367-55.123c-.134,1.884-.112,3.8-.432,5.648A12.562,12.562,0,0,1,882.9-39.243,12.588,12.588,0,0,1,871.015-51.36c-.074-2.484-.067-4.973-.013-7.458a12.487,12.487,0,0,1,12.48-12.392A12.581,12.581,0,0,1,896.22-59.037c.06,1.3.009,2.6.009,3.906ZM878.1-55.264c0,1.125-.026,2.251,0,3.375a5.565,5.565,0,0,0,5.334,5.564,5.554,5.554,0,0,0,5.661-5.252,71.794,71.794,0,0,0,0-7.282,5.445,5.445,0,0,0-5.619-5.243A5.42,5.42,0,0,0,878.1-58.64C878.071-57.515,878.1-56.389,878.1-55.264Z" transform="translate(-127.321 -42.102)" fill="#082337"/>
      <path id="Path_382" data-name="Path 382" d="M733.8-55.1a45.03,45.03,0,0,1-.479,5.992,12.514,12.514,0,0,1-12.772,9.9,12.558,12.558,0,0,1-12.043-11.6,47.5,47.5,0,0,1,.239-10.085c.978-6.543,6.827-10.752,13.622-10.238A12.561,12.561,0,0,1,733.66-58.838c.028,1.242,0,2.486,0,3.729Zm-7.249.039c0-1.244.041-2.489-.008-3.731a5.412,5.412,0,0,0-5.372-5.288,5.431,5.431,0,0,0-5.6,5.065,67.52,67.52,0,0,0,.006,7.636,5.532,5.532,0,0,0,5.637,5.078,5.564,5.564,0,0,0,5.334-5.384C726.594-52.809,726.558-53.936,726.556-55.061Z" transform="translate(-22.613 -42.126)" fill="#082337"/>
      <path id="Path_383" data-name="Path 383" d="M680.484-119.154a44.819,44.819,0,0,1-4.908-1.166,3.4,3.4,0,0,1-2.122-4.463,3.584,3.584,0,0,1,4.318-2.209c6.9,1.547,15.006-1.79,18.615-7.664A3.5,3.5,0,0,1,701.1-136.2a3.49,3.49,0,0,1,1.581,4.694,13.116,13.116,0,0,1-2.1,3.265C695.354-122.55,688.76-119.758,680.484-119.154Z" transform="translate(0 -0.002)" fill="#082337"/>
      <path id="Path_384" data-name="Path 384" d="M915.43-119.2c-7.671-.575-14.271-3.364-19.473-9.074a12.951,12.951,0,0,1-2.21-3.6,3.38,3.38,0,0,1,1.721-4.34,3.4,3.4,0,0,1,4.516,1.271c2.858,4.905,7.507,7.071,12.718,8.178a16.01,16.01,0,0,0,5.752-.175c2.186-.358,4,.323,4.644,2.18a3.589,3.589,0,0,1-2.473,4.613,11.659,11.659,0,0,1-2.053.547C917.524-119.42,916.463-119.325,915.43-119.2Z" transform="translate(-141.825)" fill="#082337"/>
    </g>
  </g>
</svg>
